# xmcd
#
# Track frame offsets:
#	150
#	16505
#	37597
#	59329
#
# Disc length: 1006 seconds
#
# Revision: 1
# Processed by: cddbd v1.5.2PL0 Copyright (c) Steve Scherf et al.
# Submitted via: EasyCDDAExtractor 11.0.0.1
#
DISCID=1d03ec04
DTITLE=ΓΙΑΓΚΟΥΣΗ ΛΙΤΣΑ - ΠΑΡΑ ΠΟΛΥ
DYEAR=2000
DGENRE=ΛΑΪΚΑ
TTITLE0=Para poly (NRG Bouncy radio mix)
TTITLE1=Ta pairnw (NRG Mellow mix)
TTITLE2=Ta pairnw (NRG Dance mix)
TTITLE3=Para poly (NRG Alternative mix)
EXTD=YEAR: 2000
EXTT0=
EXTT1=
EXTT2=
EXTT3=
PLAYORDER=
